<svg width="44" height="44" viewBox="0 0 44 44" fill="none" xmlns="http://www.w3.org/2000/svg">
<path d="M37.8891 18.4445C37.8891 30.8889 22.0002 41.5556 22.0002 41.5556C22.0002 41.5556 6.11133 30.8889 6.11133 18.4445C6.11133 14.201 7.78533 10.1314 10.7651 7.13078C13.7448 4.1302 17.7862 2.44449 22.0002 2.44449C26.2142 2.44449 30.2556 4.1302 33.2354 7.13078C36.2151 10.1314 37.8891 14.201 37.8891 18.4445Z" fill="#FF3B30"/>
<path d="M22.0001 30.5557C28.7502 30.5557 34.2223 25.0836 34.2223 18.3334C34.2223 11.5833 28.7502 6.11121 22.0001 6.11121C15.2499 6.11121 9.77783 11.5833 9.77783 18.3334C9.77783 25.0836 15.2499 30.5557 22.0001 30.5557Z" fill="white"/>
<path d="M25.1866 14.804C25.1866 14.9538 25.1757 15.1021 25.1556 15.2504C25.1618 15.2091 25.1664 15.1694 25.1726 15.1281C25.1324 15.4079 25.0581 15.6815 24.9483 15.9415C24.9638 15.9048 24.9792 15.8681 24.9947 15.8314C24.9127 16.024 24.8121 16.209 24.6946 16.3818C24.6652 16.4261 24.6327 16.4705 24.6002 16.5133C24.5321 16.6035 24.659 16.4414 24.611 16.4995C24.594 16.5209 24.577 16.5408 24.5599 16.5622C24.495 16.6386 24.4269 16.7136 24.3557 16.7839C24.2845 16.8542 24.2087 16.923 24.1314 16.9857C24.1113 17.0025 24.0896 17.0193 24.0679 17.0361C24.0076 17.0835 24.1732 16.9582 24.0819 17.0254C24.0385 17.0576 23.9937 17.0881 23.9488 17.1187C23.7724 17.2349 23.5868 17.3328 23.3918 17.4153C23.429 17.4 23.4661 17.3847 23.5032 17.3694C23.2387 17.478 22.9633 17.5529 22.6801 17.5911C22.7219 17.585 22.7621 17.5804 22.8039 17.5743C22.5037 17.6141 22.202 17.6141 21.9019 17.5743C21.9437 17.5804 21.9839 17.585 22.0257 17.5911C21.7425 17.5514 21.4656 17.478 21.2026 17.3694C21.2397 17.3847 21.2768 17.4 21.3139 17.4153C21.119 17.3343 20.9318 17.2349 20.757 17.1187C20.7121 17.0897 20.6672 17.0576 20.6239 17.0254C20.5326 16.9582 20.6966 17.0835 20.6378 17.0361C20.6162 17.0193 20.5961 17.0025 20.5744 16.9857C20.497 16.9215 20.4212 16.8542 20.3501 16.7839C20.2789 16.7136 20.2093 16.6386 20.1458 16.5622C20.1288 16.5423 20.1118 16.5209 20.0948 16.4995C20.0468 16.4399 20.1737 16.6035 20.1056 16.5133C20.0731 16.4705 20.0422 16.4261 20.0112 16.3818C19.8936 16.2075 19.7946 16.024 19.7111 15.8314C19.7265 15.8681 19.742 15.9048 19.7575 15.9415C19.6476 15.68 19.5718 15.4079 19.5331 15.1281C19.5393 15.1694 19.544 15.2091 19.5502 15.2504C19.5099 14.9538 19.5099 14.6557 19.5502 14.3591C19.544 14.4003 19.5393 14.4401 19.5331 14.4814C19.5734 14.2016 19.6476 13.9279 19.7575 13.668C19.742 13.7047 19.7265 13.7414 19.7111 13.7781C19.7931 13.5854 19.8936 13.4004 20.0112 13.2277C20.0406 13.1833 20.0731 13.139 20.1056 13.0962C20.1737 13.006 20.0468 13.1681 20.0948 13.11C20.1118 13.0886 20.1288 13.0687 20.1458 13.0473C20.2108 12.9708 20.2789 12.8959 20.3501 12.8256C20.4212 12.7553 20.497 12.6865 20.5744 12.6238C20.5945 12.607 20.6162 12.5901 20.6378 12.5733C20.6982 12.5259 20.5326 12.6513 20.6239 12.584C20.6672 12.5519 20.7121 12.5213 20.757 12.4908C20.9333 12.3746 21.119 12.2767 21.3139 12.1941C21.2768 12.2094 21.2397 12.2247 21.2026 12.24C21.4671 12.1315 21.7425 12.0565 22.0257 12.0183C21.9839 12.0244 21.9437 12.029 21.9019 12.0351C22.202 11.9954 22.5037 11.9954 22.8039 12.0351C22.7621 12.029 22.7219 12.0244 22.6801 12.0183C22.9633 12.0581 23.2402 12.1315 23.5032 12.24C23.4661 12.2247 23.429 12.2094 23.3918 12.1941C23.5868 12.2752 23.774 12.3746 23.9488 12.4908C23.9937 12.5198 24.0385 12.5519 24.0819 12.584C24.1732 12.6513 24.0091 12.5259 24.0679 12.5733C24.0896 12.5901 24.1097 12.607 24.1314 12.6238C24.2087 12.688 24.2845 12.7553 24.3557 12.8256C24.4269 12.8959 24.4965 12.9708 24.5599 13.0473C24.577 13.0671 24.594 13.0886 24.611 13.11C24.659 13.1696 24.5321 13.006 24.6002 13.0962C24.6327 13.139 24.6636 13.1833 24.6946 13.2277C24.8121 13.402 24.9112 13.5854 24.9947 13.7781C24.9792 13.7414 24.9638 13.7047 24.9483 13.668C25.0581 13.9294 25.134 14.2016 25.1726 14.4814C25.1664 14.4401 25.1618 14.4003 25.1556 14.3591C25.1757 14.5074 25.1866 14.6557 25.1866 14.804C25.1881 15.044 25.4001 15.2733 25.6507 15.2626C25.9014 15.2519 26.1164 15.0608 26.1149 14.804C26.1118 14.0533 25.8828 13.2934 25.4387 12.6803C24.9808 12.0458 24.3557 11.5719 23.6162 11.3028C22.1726 10.7769 20.4506 11.2386 19.4743 12.4128C18.9653 13.0259 18.6621 13.7567 18.6002 14.5486C18.5414 15.3024 18.7348 16.0821 19.1324 16.7288C19.5161 17.3526 20.0932 17.877 20.7693 18.1767C21.1561 18.3479 21.5445 18.4534 21.9653 18.5024C22.3552 18.5482 22.7513 18.5207 23.1365 18.4427C24.6172 18.1461 25.8379 16.8955 26.0638 15.4155C26.0948 15.2137 26.1164 15.0104 26.1164 14.8055C26.118 14.5655 25.9029 14.3361 25.6523 14.3468C25.3985 14.3575 25.1881 14.5471 25.1866 14.804ZM27.2521 24.8365C26.9225 24.8365 26.593 24.8365 26.2634 24.8365C25.4774 24.8365 24.6899 24.8365 23.9039 24.8365C22.9555 24.8365 22.0071 24.8365 21.0587 24.8365C20.2417 24.8365 19.4264 24.8365 18.6095 24.8365C18.2258 24.8365 17.8436 24.8381 17.4599 24.8365C17.4212 24.8365 17.3825 24.8335 17.3439 24.8289C17.3856 24.835 17.4259 24.8396 17.4676 24.8457C17.4058 24.8365 17.347 24.8197 17.2897 24.7968C17.3268 24.8121 17.364 24.8274 17.4011 24.8427C17.3578 24.8243 17.316 24.8029 17.2758 24.7769C17.2356 24.7509 17.2216 24.7158 17.3052 24.8014C17.2897 24.7846 17.2696 24.7708 17.2541 24.7555C17.2495 24.7509 17.2046 24.7066 17.2077 24.7051C17.2077 24.7051 17.2882 24.8167 17.2325 24.7341C17.2062 24.6959 17.1845 24.6546 17.1659 24.6103C17.1814 24.647 17.1969 24.6837 17.2124 24.7204C17.1891 24.6638 17.1737 24.6042 17.1628 24.5445C17.169 24.5858 17.1737 24.6256 17.1799 24.6668C17.169 24.5812 17.1721 24.4925 17.1721 24.4069C17.1721 24.2586 17.1721 24.1088 17.1721 23.9605C17.1721 23.6639 17.1721 23.3673 17.1721 23.0707C17.1721 22.8949 17.1799 22.719 17.2031 22.5447C17.1969 22.586 17.1922 22.6258 17.1861 22.6671C17.2294 22.3536 17.3129 22.0463 17.4382 21.7543C17.4228 21.791 17.4073 21.8277 17.3918 21.8644C17.4615 21.7039 17.5419 21.5479 17.6347 21.3981C17.6812 21.3232 17.7291 21.2513 17.7817 21.181C17.7941 21.1642 17.8049 21.1489 17.8173 21.132C17.8235 21.1244 17.8297 21.1168 17.8359 21.1076C17.8622 21.0724 17.7926 21.1687 17.7941 21.1611C17.8003 21.129 17.8622 21.077 17.8838 21.0525C17.9952 20.9226 18.1159 20.8018 18.2459 20.6887C18.2784 20.6596 18.3124 20.6321 18.3464 20.6046C18.3619 20.5923 18.3774 20.5801 18.3944 20.5664C18.447 20.5235 18.2985 20.6367 18.3727 20.5832C18.4439 20.5312 18.5151 20.4807 18.5894 20.4349C18.758 20.3278 18.9375 20.2346 19.1216 20.1566C19.0845 20.1719 19.0473 20.1872 19.0102 20.2025C19.3057 20.0802 19.6151 19.9961 19.9339 19.9533C19.8921 19.9594 19.8519 19.964 19.8101 19.9701C20.0638 19.938 20.3176 19.9395 20.5728 19.9395C20.9194 19.9395 21.2644 19.9395 21.611 19.9395C22.4186 19.9395 23.2263 19.9395 24.0339 19.9395C24.3217 19.9395 24.6079 19.9334 24.8941 19.9701C24.8524 19.964 24.8121 19.9594 24.7704 19.9533C25.0875 19.9961 25.3985 20.0786 25.694 20.2025C25.6569 20.1872 25.6198 20.1719 25.5826 20.1566C25.7451 20.2254 25.9029 20.3049 26.0545 20.3966C26.1303 20.4425 26.2031 20.4899 26.2742 20.5419C26.2912 20.5541 26.3067 20.5648 26.3237 20.5771C26.3315 20.5832 26.3392 20.5893 26.3485 20.5954C26.3841 20.6214 26.2866 20.5526 26.2943 20.5541C26.3268 20.5602 26.3794 20.6214 26.4042 20.6428C26.5357 20.7529 26.6579 20.8721 26.7724 21.0006C26.8018 21.0327 26.8297 21.0663 26.8575 21.0999C26.8699 21.1152 26.8823 21.1305 26.8962 21.1473C26.9395 21.1993 26.825 21.0525 26.8792 21.1259C26.9318 21.1963 26.9828 21.2666 27.0293 21.34C27.1376 21.5066 27.2319 21.684 27.3108 21.8659C27.2954 21.8292 27.2799 21.7925 27.2644 21.7558C27.3882 22.0479 27.4733 22.3536 27.5166 22.6686C27.5104 22.6273 27.5058 22.5876 27.4996 22.5463C27.5352 22.8215 27.5305 23.0982 27.5305 23.3749C27.5305 23.7021 27.5305 24.0293 27.5305 24.3565C27.5305 24.4589 27.5367 24.5644 27.5228 24.6668C27.529 24.6256 27.5336 24.5858 27.5398 24.5445C27.5305 24.6057 27.5135 24.6638 27.4903 24.7204C27.5058 24.6837 27.5213 24.647 27.5367 24.6103C27.5182 24.6531 27.4965 24.6944 27.4702 24.7341C27.4439 24.7739 27.4083 24.7876 27.495 24.7051C27.4779 24.7204 27.464 24.7402 27.4485 24.7555C27.4439 24.7601 27.399 24.8044 27.3975 24.8014C27.3975 24.8014 27.5104 24.7219 27.4269 24.7769C27.3882 24.8029 27.3464 24.8243 27.3016 24.8427C27.3387 24.8274 27.3758 24.8121 27.413 24.7968C27.3557 24.8197 27.2954 24.835 27.235 24.8457C27.2768 24.8396 27.317 24.835 27.3588 24.8289C27.3232 24.8335 27.2892 24.835 27.2521 24.8365C27.0091 24.8396 26.7771 25.0445 26.7879 25.2952C26.7987 25.5414 26.9921 25.7569 27.2521 25.7539C27.8106 25.7462 28.3428 25.3472 28.4341 24.7876C28.4681 24.5797 28.4589 24.3687 28.4589 24.1592C28.4589 23.8825 28.4589 23.6043 28.4589 23.3275C28.4589 23.1334 28.4635 22.9377 28.448 22.7435C28.3815 21.8598 28.0318 21.0327 27.4408 20.3645C26.8869 19.7377 26.1102 19.2851 25.2856 19.1139C24.8616 19.0252 24.4408 19.0206 24.0122 19.0206C23.5048 19.0206 22.9973 19.0206 22.4883 19.0206C21.9483 19.0206 21.4099 19.0206 20.8699 19.0206C20.5419 19.0206 20.2077 19.0069 19.8813 19.0421C19.4125 19.094 18.9746 19.2118 18.546 19.4075C18.167 19.5802 17.8158 19.8233 17.511 20.1046C16.8952 20.6734 16.4558 21.4546 16.3103 22.2757C16.216 22.8123 16.2407 23.3566 16.2407 23.8993C16.2407 24.1103 16.2407 24.3228 16.2407 24.5338C16.2407 24.9757 16.479 25.4221 16.8921 25.6193C17.0839 25.7111 17.2835 25.7539 17.497 25.7539C17.5744 25.7539 17.6518 25.7539 17.7307 25.7539C18.0463 25.7539 18.3619 25.7539 18.676 25.7539C19.151 25.7539 19.6244 25.7539 20.0994 25.7539C20.661 25.7539 21.2227 25.7539 21.7858 25.7539C22.3691 25.7539 22.9524 25.7539 23.5373 25.7539C24.0772 25.7539 24.6172 25.7539 25.1572 25.7539C25.5811 25.7539 26.005 25.7539 26.4274 25.7539C26.6703 25.7539 26.9117 25.7539 27.1546 25.7539C27.1871 25.7539 27.218 25.7539 27.2505 25.7539C27.4934 25.7539 27.7255 25.5429 27.7147 25.2952C27.7054 25.046 27.5135 24.8365 27.2521 24.8365Z" fill="#FF3B30"/>
<path d="M25.1866 14.804C25.1866 14.9538 25.1757 15.1021 25.1556 15.2504C25.1618 15.2091 25.1664 15.1694 25.1726 15.1281C25.1324 15.4079 25.0581 15.6815 24.9483 15.9415C24.9638 15.9048 24.9792 15.8681 24.9947 15.8314C24.9127 16.024 24.8121 16.209 24.6946 16.3818C24.6652 16.4261 24.6327 16.4705 24.6002 16.5133C24.5321 16.6035 24.659 16.4414 24.611 16.4995C24.594 16.5209 24.577 16.5408 24.5599 16.5622C24.495 16.6386 24.4269 16.7136 24.3557 16.7839C24.2845 16.8542 24.2087 16.923 24.1314 16.9857C24.1113 17.0025 24.0896 17.0193 24.0679 17.0361C24.0076 17.0835 24.1732 16.9582 24.0819 17.0254C24.0385 17.0576 23.9937 17.0881 23.9488 17.1187C23.7724 17.2349 23.5868 17.3328 23.3918 17.4153C23.429 17.4 23.4661 17.3847 23.5032 17.3694C23.2387 17.478 22.9633 17.5529 22.6801 17.5911C22.7219 17.585 22.7621 17.5804 22.8039 17.5743C22.5037 17.6141 22.202 17.6141 21.9019 17.5743C21.9437 17.5804 21.9839 17.585 22.0257 17.5911C21.7425 17.5514 21.4656 17.478 21.2026 17.3694C21.2397 17.3847 21.2768 17.4 21.3139 17.4153C21.119 17.3343 20.9318 17.2349 20.757 17.1187C20.7121 17.0897 20.6672 17.0576 20.6239 17.0254C20.5326 16.9582 20.6966 17.0835 20.6378 17.0361C20.6162 17.0193 20.5961 17.0025 20.5744 16.9857C20.497 16.9215 20.4212 16.8542 20.3501 16.7839C20.2789 16.7136 20.2093 16.6386 20.1458 16.5622C20.1288 16.5423 20.1118 16.5209 20.0948 16.4995C20.0468 16.4399 20.1737 16.6035 20.1056 16.5133C20.0731 16.4705 20.0422 16.4261 20.0112 16.3818C19.8936 16.2075 19.7946 16.024 19.7111 15.8314C19.7265 15.8681 19.742 15.9048 19.7575 15.9415C19.6476 15.68 19.5718 15.4079 19.5331 15.1281C19.5393 15.1694 19.544 15.2091 19.5502 15.2504C19.5099 14.9538 19.5099 14.6557 19.5502 14.3591C19.544 14.4003 19.5393 14.4401 19.5331 14.4814C19.5734 14.2016 19.6476 13.9279 19.7575 13.668C19.742 13.7047 19.7265 13.7414 19.7111 13.7781C19.7931 13.5854 19.8936 13.4004 20.0112 13.2277C20.0406 13.1833 20.0731 13.139 20.1056 13.0962C20.1737 13.006 20.0468 13.1681 20.0948 13.11C20.1118 13.0886 20.1288 13.0687 20.1458 13.0473C20.2108 12.9708 20.2789 12.8959 20.3501 12.8256C20.4212 12.7553 20.497 12.6865 20.5744 12.6238C20.5945 12.607 20.6162 12.5901 20.6378 12.5733C20.6982 12.5259 20.5326 12.6513 20.6239 12.584C20.6672 12.5519 20.7121 12.5213 20.757 12.4908C20.9333 12.3746 21.119 12.2767 21.3139 12.1941C21.2768 12.2094 21.2397 12.2247 21.2026 12.24C21.4671 12.1315 21.7425 12.0565 22.0257 12.0183C21.9839 12.0244 21.9437 12.029 21.9019 12.0351C22.202 11.9954 22.5037 11.9954 22.8039 12.0351C22.7621 12.029 22.7219 12.0244 22.6801 12.0183C22.9633 12.0581 23.2402 12.1315 23.5032 12.24C23.4661 12.2247 23.429 12.2094 23.3918 12.1941C23.5868 12.2752 23.774 12.3746 23.9488 12.4908C23.9937 12.5198 24.0385 12.5519 24.0819 12.584C24.1732 12.6513 24.0091 12.5259 24.0679 12.5733C24.0896 12.5901 24.1097 12.607 24.1314 12.6238C24.2087 12.688 24.2845 12.7553 24.3557 12.8256C24.4269 12.8959 24.4965 12.9708 24.5599 13.0473C24.577 13.0671 24.594 13.0886 24.611 13.11C24.659 13.1696 24.5321 13.006 24.6002 13.0962C24.6327 13.139 24.6636 13.1833 24.6946 13.2277C24.8121 13.402 24.9112 13.5854 24.9947 13.7781C24.9792 13.7414 24.9638 13.7047 24.9483 13.668C25.0581 13.9294 25.134 14.2016 25.1726 14.4814C25.1664 14.4401 25.1618 14.4003 25.1556 14.3591C25.1757 14.5074 25.1866 14.6557 25.1866 14.804ZM25.1866 14.804C25.1881 15.044 25.4001 15.2733 25.6507 15.2626C25.9014 15.2519 26.1164 15.0608 26.1149 14.804C26.1118 14.0533 25.8828 13.2934 25.4387 12.6803C24.9808 12.0458 24.3557 11.5719 23.6162 11.3028C22.1726 10.7769 20.4506 11.2386 19.4743 12.4128C18.9653 13.0259 18.6621 13.7567 18.6002 14.5486C18.5414 15.3024 18.7348 16.0821 19.1324 16.7288C19.5161 17.3526 20.0932 17.877 20.7693 18.1767C21.1561 18.3479 21.5445 18.4534 21.9653 18.5024C22.3552 18.5482 22.7513 18.5207 23.1365 18.4427C24.6172 18.1461 25.8379 16.8955 26.0638 15.4155C26.0948 15.2137 26.1164 15.0104 26.1164 14.8055C26.118 14.5655 25.9029 14.3361 25.6523 14.3468C25.3985 14.3575 25.1881 14.5471 25.1866 14.804ZM27.2521 24.8365C26.9225 24.8365 26.593 24.8365 26.2634 24.8365C25.4774 24.8365 24.6899 24.8365 23.9039 24.8365C22.9555 24.8365 22.0071 24.8365 21.0587 24.8365C20.2417 24.8365 19.4264 24.8365 18.6095 24.8365C18.2258 24.8365 17.8436 24.8381 17.4599 24.8365C17.4212 24.8365 17.3825 24.8335 17.3439 24.8289C17.3856 24.835 17.4259 24.8396 17.4676 24.8457C17.4058 24.8365 17.347 24.8197 17.2897 24.7968C17.3268 24.8121 17.364 24.8274 17.4011 24.8427C17.3578 24.8243 17.316 24.8029 17.2758 24.7769C17.2356 24.7509 17.2216 24.7158 17.3052 24.8014C17.2897 24.7846 17.2696 24.7708 17.2541 24.7555C17.2495 24.7509 17.2046 24.7066 17.2077 24.7051C17.2077 24.7051 17.2882 24.8167 17.2325 24.7341C17.2062 24.6959 17.1845 24.6546 17.1659 24.6103C17.1814 24.647 17.1969 24.6837 17.2124 24.7204C17.1891 24.6638 17.1737 24.6042 17.1628 24.5445C17.169 24.5858 17.1737 24.6256 17.1799 24.6668C17.169 24.5812 17.1721 24.4925 17.1721 24.4069C17.1721 24.2586 17.1721 24.1088 17.1721 23.9605C17.1721 23.6639 17.1721 23.3673 17.1721 23.0707C17.1721 22.8949 17.1799 22.719 17.2031 22.5447C17.1969 22.586 17.1922 22.6258 17.1861 22.6671C17.2294 22.3536 17.3129 22.0463 17.4382 21.7543C17.4228 21.791 17.4073 21.8277 17.3918 21.8644C17.4615 21.7039 17.5419 21.5479 17.6347 21.3981C17.6812 21.3232 17.7291 21.2513 17.7817 21.181C17.7941 21.1642 17.8049 21.1489 17.8173 21.132C17.8235 21.1244 17.8297 21.1168 17.8359 21.1076C17.8622 21.0724 17.7926 21.1687 17.7941 21.1611C17.8003 21.129 17.8622 21.077 17.8838 21.0525C17.9952 20.9226 18.1159 20.8018 18.2459 20.6887C18.2784 20.6596 18.3124 20.6321 18.3464 20.6046C18.3619 20.5923 18.3774 20.5801 18.3944 20.5664C18.447 20.5235 18.2985 20.6367 18.3727 20.5832C18.4439 20.5312 18.5151 20.4807 18.5894 20.4349C18.758 20.3278 18.9375 20.2346 19.1216 20.1566C19.0845 20.1719 19.0473 20.1872 19.0102 20.2025C19.3057 20.0802 19.6151 19.9961 19.9339 19.9533C19.8921 19.9594 19.8519 19.964 19.8101 19.9701C20.0638 19.938 20.3176 19.9395 20.5728 19.9395C20.9194 19.9395 21.2644 19.9395 21.611 19.9395C22.4186 19.9395 23.2263 19.9395 24.0339 19.9395C24.3217 19.9395 24.6079 19.9334 24.8941 19.9701C24.8524 19.964 24.8121 19.9594 24.7704 19.9533C25.0875 19.9961 25.3985 20.0786 25.694 20.2025C25.6569 20.1872 25.6198 20.1719 25.5826 20.1566C25.7451 20.2254 25.9029 20.3049 26.0545 20.3966C26.1303 20.4425 26.2031 20.4899 26.2742 20.5419C26.2912 20.5541 26.3067 20.5648 26.3237 20.5771C26.3315 20.5832 26.3392 20.5893 26.3485 20.5954C26.3841 20.6214 26.2866 20.5526 26.2943 20.5541C26.3268 20.5602 26.3794 20.6214 26.4042 20.6428C26.5357 20.7529 26.6579 20.8721 26.7724 21.0006C26.8018 21.0327 26.8297 21.0663 26.8575 21.0999C26.8699 21.1152 26.8823 21.1305 26.8962 21.1473C26.9395 21.1993 26.825 21.0525 26.8792 21.1259C26.9318 21.1963 26.9828 21.2666 27.0293 21.34C27.1376 21.5066 27.2319 21.684 27.3108 21.8659C27.2954 21.8292 27.2799 21.7925 27.2644 21.7558C27.3882 22.0479 27.4733 22.3536 27.5166 22.6686C27.5104 22.6273 27.5058 22.5876 27.4996 22.5463C27.5352 22.8215 27.5305 23.0982 27.5305 23.3749C27.5305 23.7021 27.5305 24.0293 27.5305 24.3565C27.5305 24.4589 27.5367 24.5644 27.5228 24.6668C27.529 24.6256 27.5336 24.5858 27.5398 24.5445C27.5305 24.6057 27.5135 24.6638 27.4903 24.7204C27.5058 24.6837 27.5213 24.647 27.5367 24.6103C27.5182 24.6531 27.4965 24.6944 27.4702 24.7341C27.4439 24.7739 27.4083 24.7876 27.495 24.7051C27.4779 24.7204 27.464 24.7402 27.4485 24.7555C27.4439 24.7601 27.399 24.8044 27.3975 24.8014C27.3975 24.8014 27.5104 24.7219 27.4269 24.7769C27.3882 24.8029 27.3464 24.8243 27.3016 24.8427C27.3387 24.8274 27.3758 24.8121 27.413 24.7968C27.3557 24.8197 27.2954 24.835 27.235 24.8457C27.2768 24.8396 27.317 24.835 27.3588 24.8289C27.3232 24.8335 27.2892 24.835 27.2521 24.8365ZM27.2521 24.8365C27.0091 24.8396 26.7771 25.0445 26.7879 25.2952C26.7987 25.5414 26.9921 25.7569 27.2521 25.7539C27.8106 25.7462 28.3428 25.3472 28.4341 24.7876C28.4681 24.5797 28.4589 24.3687 28.4589 24.1592C28.4589 23.8825 28.4589 23.6043 28.4589 23.3275C28.4589 23.1334 28.4635 22.9377 28.448 22.7435C28.3815 21.8598 28.0318 21.0327 27.4408 20.3645C26.8869 19.7377 26.1102 19.2851 25.2856 19.1139C24.8616 19.0252 24.4408 19.0206 24.0122 19.0206C23.5048 19.0206 22.9973 19.0206 22.4883 19.0206C21.9483 19.0206 21.4099 19.0206 20.8699 19.0206C20.5419 19.0206 20.2077 19.0069 19.8813 19.0421C19.4125 19.094 18.9746 19.2118 18.546 19.4075C18.167 19.5802 17.8158 19.8233 17.511 20.1046C16.8952 20.6734 16.4558 21.4546 16.3103 22.2757C16.216 22.8123 16.2407 23.3566 16.2407 23.8993C16.2407 24.1103 16.2407 24.3228 16.2407 24.5338C16.2407 24.9757 16.479 25.4221 16.8921 25.6193C17.0839 25.7111 17.2835 25.7539 17.497 25.7539C17.5744 25.7539 17.6518 25.7539 17.7307 25.7539C18.0463 25.7539 18.3619 25.7539 18.676 25.7539C19.151 25.7539 19.6244 25.7539 20.0994 25.7539C20.661 25.7539 21.2227 25.7539 21.7858 25.7539C22.3691 25.7539 22.9524 25.7539 23.5373 25.7539C24.0772 25.7539 24.6172 25.7539 25.1572 25.7539C25.5811 25.7539 26.005 25.7539 26.4274 25.7539C26.6703 25.7539 26.9117 25.7539 27.1546 25.7539C27.1871 25.7539 27.218 25.7539 27.2505 25.7539C27.4934 25.7539 27.7255 25.5429 27.7147 25.2952C27.7054 25.046 27.5135 24.8365 27.2521 24.8365Z" stroke="#FF3B30" stroke-width="1.0649" stroke-linejoin="round"/>
</svg>
